<?xml version="1.0" standalone="no"?><!DOCTYPE svg PUBLIC "-//W3C//DTD SVG 1.1//EN" "http://www.w3.org/Graphics/SVG/1.1/DTD/svg11.dtd"><svg t="1735402016901" class="icon" viewBox="0 0 1024 1024" version="1.1" xmlns="http://www.w3.org/2000/svg" p-id="5919" xmlns:xlink="http://www.w3.org/1999/xlink" width="200" height="200"><path d="M778.24 778.24h-184.32a61.44 61.44 0 0 1 0-122.88h184.32v-83.49696c0-10.4448 8.3968-18.90304 18.75968-18.90304 4.8128 0 9.44128 1.86368 12.94336 5.2224l143.89248 138.07616a28.50816 28.50816 0 0 1 0 41.08288l-143.89248 138.07616a18.65728 18.65728 0 0 1-26.5216-0.63488 18.98496 18.98496 0 0 1-5.18144-13.04576V778.24z m0-409.6h-120.34048a61.44 61.44 0 0 0-50.33984 26.2144L394.24 699.5968A184.32 184.32 0 0 1 243.22048 778.24H102.4a40.96 40.96 0 0 1-40.96-40.96c0-23.30624 17.03936-43.08992 40.07936-46.55104 111.32928-16.6912 175.32928-37.21216 192.04096-61.58336L506.88 324.4032A184.32 184.32 0 0 1 657.89952 245.76H778.24V162.26304c0-10.4448 8.3968-18.90304 18.75968-18.90304 4.8128 0 9.44128 1.86368 12.94336 5.2224l143.89248 138.07616a28.50816 28.50816 0 0 1 0 41.08288l-143.89248 138.07616a18.65728 18.65728 0 0 1-26.5216-0.63488 18.98496 18.98496 0 0 1-5.18144-13.04576V368.64z m-471.04-122.88a61.44 61.44 0 0 1 0 122.88L101.84704 334.41792A48.3328 48.3328 0 0 1 61.44 286.72a40.96 40.96 0 0 1 40.96-40.96h204.8z" p-id="5920"></path></svg>