<?xml version="1.0" standalone="no"?><!DOCTYPE svg PUBLIC "-//W3C//DTD SVG 1.1//EN" "http://www.w3.org/Graphics/SVG/1.1/DTD/svg11.dtd"><svg t="1734024304728" class="icon" viewBox="0 0 1024 1024" version="1.1" xmlns="http://www.w3.org/2000/svg" p-id="2380" xmlns:xlink="http://www.w3.org/1999/xlink" width="200" height="200"><path d="M900.58 224H284c-68 0-124 55.02-124 122.66v490.68c0 67.64 56 122.66 124 122.66h616c68 0 124-52.36 124-120V346.66c0-67.64-55.36-122.66-123.42-122.66z m-154.3 122.68a92 92 0 1 1-92.56 92 92.38 92.38 0 0 1 92.56-92.02z m-463.1 552c-34 0-59.72-27.5-59.72-61.32v-129.66l180.92-161.58a93.08 93.08 0 0 1 126.88 3.66L656.54 674l-226 224.66zM960 837.34a61.34 61.34 0 0 1-61.42 61.32H518L752.16 666a92.48 92.48 0 0 1 118.88-0.32L960 741.18z" p-id="2381"></path><path d="M768 64H128A128 128 0 0 0 0 192v512a128.22 128.22 0 0 0 96 124V304a144 144 0 0 1 144-144h652a128.22 128.22 0 0 0-124-96z" p-id="2382"></path></svg>