<?xml version="1.0" standalone="no"?><!DOCTYPE svg PUBLIC "-//W3C//DTD SVG 1.1//EN" "http://www.w3.org/Graphics/SVG/1.1/DTD/svg11.dtd"><svg t="1734022756146" class="icon" viewBox="0 0 1024 1024" version="1.1" xmlns="http://www.w3.org/2000/svg" p-id="2436" xmlns:xlink="http://www.w3.org/1999/xlink" width="200" height="200"><path d="M494.3872 614.4l-67.05152 66.1504a61.44 61.44 0 0 0-18.10432 48.76288c0.24576 2.9696 0.36864 5.61152 0.36864 7.96672a143.36 143.36 0 1 1-143.36-143.36 102.4 102.4 0 0 1 9.48224 0.512 61.44 61.44 0 0 0 48.92672-17.42848L390.5536 512l-65.90464-65.00352a61.44 61.44 0 0 0-48.92672-17.408A102.4 102.4 0 0 1 266.24 430.08a143.36 143.36 0 1 1 143.36-143.36c0 2.3552-0.12288 4.99712-0.36864 7.96672a61.44 61.44 0 0 0 18.10432 48.78336l467.70176 461.25056a20.2752 20.2752 0 0 1 0 28.95872c-3.8912 3.85024-9.17504 6.00064-14.68416 6.00064h-123.12576a83.6608 83.6608 0 0 1-58.73664-24.00256L494.3872 614.4zM266.24 348.16a61.44 61.44 0 1 0 0-122.88 61.44 61.44 0 0 0 0 122.88z m0 327.68a61.44 61.44 0 1 0 0 122.88 61.44 61.44 0 0 0 0-122.88z m266.24-303.3088l169.984-165.13024A82.8416 82.8416 0 0 1 760.0128 184.32h120.7296c5.38624 0 10.56768 2.06848 14.39744 5.77536a19.2512 19.2512 0 0 1 0 27.8528L634.2656 471.04 532.48 372.5312z" p-id="2437"></path></svg>