<?xml version="1.0" standalone="no"?><!DOCTYPE svg PUBLIC "-//W3C//DTD SVG 1.1//EN" "http://www.w3.org/Graphics/SVG/1.1/DTD/svg11.dtd"><svg t="1733923959415" class="icon" viewBox="0 0 1024 1024" version="1.1" xmlns="http://www.w3.org/2000/svg" p-id="2531" xmlns:xlink="http://www.w3.org/1999/xlink" width="200" height="200"><path d="M618.222 512.484l320.169-320.152c29.477-29.48 29.477-77.27 0-106.711-29.477-29.48-77.234-29.48-106.711 0L511.508 405.776 191.336 85.621c-29.402-29.48-77.23-29.48-106.711 0-29.477 29.441-29.477 77.23 0 106.711l320.169 320.152L84.625 832.637c-29.477 29.477-29.477 77.23 0 106.711 29.48 29.477 77.309 29.477 106.711 0l320.172-320.155L831.68 939.348c29.477 29.477 77.234 29.477 106.711 0 29.477-29.48 29.477-77.234 0-106.711L618.222 512.484z" p-id="2532"></path></svg>