<?xml version="1.0" standalone="no"?><!DOCTYPE svg PUBLIC "-//W3C//DTD SVG 1.1//EN" "http://www.w3.org/Graphics/SVG/1.1/DTD/svg11.dtd"><svg t="1734022781651" class="icon" viewBox="0 0 1024 1024" version="1.1" xmlns="http://www.w3.org/2000/svg" p-id="2582" xmlns:xlink="http://www.w3.org/1999/xlink" width="200" height="200"><path d="M76.8 235.52v563.2c0 25.6 25.6 51.2 56.32 51.2h757.76c30.72 0 56.32-25.6 56.32-51.2V312.32h-870.4V235.52z m107.52 179.2H409.6c5.12 0 15.36 5.12 15.36 10.24s5.12 15.36 0 20.48c-5.12 5.12-10.24 10.24-20.48 10.24H184.32c-10.24 0-20.48-10.24-20.48-20.48s5.12-20.48 20.48-20.48z m0 138.24H409.6c10.24 0 20.48 10.24 20.48 20.48s-10.24 20.48-20.48 20.48H184.32c-10.24 0-20.48-10.24-20.48-20.48s5.12-20.48 20.48-20.48z" fill="#FFCA28" p-id="2583"></path><path d="M890.88 256H512c-35.84 0-66.56 5.12-76.8-20.48-5.12-20.48-30.72-51.2-51.2-51.2H133.12c-30.72-5.12-56.32 20.48-56.32 51.2v76.8h865.28c5.12-30.72-20.48-56.32-51.2-56.32z" fill="#FFA000" p-id="2584"></path><path d="M184.32 455.68H409.6c5.12 0 15.36-5.12 15.36-10.24 5.12-5.12 5.12-15.36 0-20.48s-10.24-10.24-20.48-10.24H184.32c-10.24 0-20.48 10.24-20.48 20.48s5.12 20.48 20.48 20.48zM184.32 593.92H409.6c10.24 0 20.48-10.24 20.48-20.48s-10.24-20.48-20.48-20.48H184.32c-10.24 0-20.48 10.24-20.48 20.48s5.12 20.48 20.48 20.48z" fill="#FFF8E1" p-id="2585"></path></svg>