<?xml version="1.0" standalone="no"?><!DOCTYPE svg PUBLIC "-//W3C//DTD SVG 1.1//EN" "http://www.w3.org/Graphics/SVG/1.1/DTD/svg11.dtd"><svg t="1734012384543" class="icon" viewBox="0 0 1024 1024" version="1.1" xmlns="http://www.w3.org/2000/svg" p-id="2548" xmlns:xlink="http://www.w3.org/1999/xlink" width="200" height="200"><path d="M204.8 122.88h184.32a81.92 81.92 0 0 1 81.92 81.92v184.32a81.92 81.92 0 0 1-81.92 81.92h-184.32a81.92 81.92 0 0 1-81.92-81.92v-184.32a81.92 81.92 0 0 1 81.92-81.92z m430.08 0h184.32a81.92 81.92 0 0 1 81.92 81.92v184.32a81.92 81.92 0 0 1-81.92 81.92h-184.32a81.92 81.92 0 0 1-81.92-81.92v-184.32a81.92 81.92 0 0 1 81.92-81.92zM204.8 552.96h184.32a81.92 81.92 0 0 1 81.92 81.92v184.32a81.92 81.92 0 0 1-81.92 81.92h-184.32a81.92 81.92 0 0 1-81.92-81.92v-184.32a81.92 81.92 0 0 1 81.92-81.92z m430.08 0h184.32a81.92 81.92 0 0 1 81.92 81.92v184.32a81.92 81.92 0 0 1-81.92 81.92h-184.32a81.92 81.92 0 0 1-81.92-81.92v-184.32a81.92 81.92 0 0 1 81.92-81.92z" p-id="2549"></path></svg>