<?xml version="1.0" standalone="no"?><!DOCTYPE svg PUBLIC "-//W3C//DTD SVG 1.1//EN" "http://www.w3.org/Graphics/SVG/1.1/DTD/svg11.dtd"><svg t="1733923697754" class="icon" viewBox="0 0 1024 1024" version="1.1" xmlns="http://www.w3.org/2000/svg" p-id="2385" xmlns:xlink="http://www.w3.org/1999/xlink" width="200" height="200"><path d="M512 962.56C263.168 962.56 61.44 760.832 61.44 512S263.168 61.44 512 61.44s450.56 201.728 450.56 450.56-201.728 450.56-450.56 450.56z m0-634.88a61.44 61.44 0 1 0 0-122.88 61.44 61.44 0 0 0 0 122.88z m-1.55648 61.44a81.92 81.92 0 0 0-81.44896 90.70592l31.6416 293.25312a51.67104 51.67104 0 0 0 102.74816 0l31.62112-293.25312A81.92 81.92 0 0 0 513.55648 389.12h-3.11296z" p-id="2386"></path></svg>