<?xml version="1.0" standalone="no"?><!DOCTYPE svg PUBLIC "-//W3C//DTD SVG 1.1//EN" "http://www.w3.org/Graphics/SVG/1.1/DTD/svg11.dtd"><svg t="1735104705535" class="icon" viewBox="0 0 1024 1024" version="1.1" xmlns="http://www.w3.org/2000/svg" p-id="2552" xmlns:xlink="http://www.w3.org/1999/xlink" width="200" height="200"><path d="M591.85344 136.448L618.47744 11.264A513.664 513.664 0 0 0 511.98144 0v128c26.88 0 53.632 2.88 79.872 8.448z" opacity=".01" p-id="2553"></path><path d="M668.20544 161.28l52.032-116.992a513.664 513.664 0 0 0-101.76-33.088L591.85344 136.32c26.24 5.632 51.84 13.952 76.352 24.832z" opacity=".04" p-id="2554"></path><path d="M737.70944 201.344L812.84544 97.792a513.664 513.664 0 0 0-92.672-53.504l-52.032 116.928c24.512 10.88 47.808 24.32 69.504 40.128z" opacity=".08" p-id="2555"></path><path d="M797.35744 255.104l95.104-85.696a513.728 513.728 0 0 0-79.488-71.68l-75.264 103.616c21.76 15.808 41.664 33.792 59.648 53.76z" opacity=".12" p-id="2556"></path><path d="M844.52544 320l110.848-64a513.664 513.664 0 0 0-62.848-86.592l-95.168 85.632c17.92 19.968 33.728 41.728 47.168 64.96z" opacity=".16" p-id="2557"></path><path d="M877.16544 393.344l121.728-39.552A513.664 513.664 0 0 0 955.37344 256l-110.784 64c13.376 23.232 24.32 47.808 32.64 73.344z" opacity=".2" p-id="2558"></path><path d="M893.86944 471.872l127.296-13.44a513.728 513.728 0 0 0-22.208-104.64l-121.728 39.552c8.256 25.536 13.824 51.84 16.64 78.528z" opacity=".24" p-id="2559"></path><path d="M893.86944 552.128l127.296 13.44a513.728 513.728 0 0 0 0-107.072l-127.232 13.376a385.28 385.28 0 0 1-0.064 80.256z" opacity=".28" p-id="2560"></path><path d="M877.16544 630.656l121.728 39.552c11.072-34.048 18.56-69.12 22.336-104.704l-127.36-13.376a385.28 385.28 0 0 1-16.64 78.528z" opacity=".32" p-id="2561"></path><path d="M844.52544 704l110.848 64c17.92-30.976 32.512-63.744 43.52-97.792l-121.664-39.552a385.28 385.28 0 0 1-32.64 73.344z" opacity=".38" p-id="2562"></path><path d="M797.35744 768.896l95.104 85.632c23.936-26.56 45.056-55.552 62.976-86.528l-110.848-64a385.28 385.28 0 0 1-47.232 64.896z" opacity=".43" p-id="2563"></path><path d="M737.70944 822.656L812.84544 926.08a513.664 513.664 0 0 0 79.616-71.552l-95.168-85.632a385.28 385.28 0 0 1-59.648 53.696z" opacity=".46" p-id="2564"></path><path d="M668.20544 862.72l52.032 116.992c32.64-14.592 63.744-32.512 92.736-53.504l-75.264-103.552a385.28 385.28 0 0 1-69.504 40.128z" opacity=".49" p-id="2565"></path><path d="M591.85344 887.552l26.624 125.184a513.664 513.664 0 0 0 101.76-33.024l-52.032-116.928c-24.512 10.88-50.112 19.2-76.352 24.768z" opacity=".52" p-id="2566"></path><path d="M512.04544 896v128c35.712 0 71.424-3.84 106.432-11.2l-26.624-125.184c-26.24 5.568-52.992 8.32-79.872 8.32z" opacity=".55" p-id="2567"></path><path d="M432.17344 887.552l-26.624 125.184A513.664 513.664 0 0 0 512.04544 1024v-128a385.28 385.28 0 0 1-79.808-8.448z" opacity=".58" p-id="2568"></path><path d="M355.88544 862.72l-52.096 116.992c32.64 14.528 66.752 25.6 101.76 33.088l26.624-125.184a385.28 385.28 0 0 1-76.352-24.832z" opacity=".61" p-id="2569"></path><path d="M286.31744 822.656l-75.2 103.552c28.928 20.992 59.968 38.976 92.672 53.504l52.032-116.928a385.28 385.28 0 0 1-69.504-40.128z" opacity=".64" p-id="2570"></path><path d="M226.66944 768.896l-95.104 85.696c23.936 26.56 50.56 50.56 79.488 71.68l75.264-103.616a385.28 385.28 0 0 1-59.648-53.76z" opacity=".67" p-id="2571"></path><path d="M179.50144 704l-110.848 64c17.92 30.976 38.976 59.968 62.848 86.592l95.168-85.632A385.28 385.28 0 0 1 179.50144 704z" opacity=".7" p-id="2572"></path><path d="M146.86144 630.656l-121.728 39.552c11.008 34.048 25.6 66.816 43.52 97.792l110.784-64a385.408 385.408 0 0 1-32.64-73.344z" opacity=".73" p-id="2573"></path><path d="M130.15744 552.128l-127.296 13.44c3.712 35.52 11.2 70.592 22.208 104.64l121.728-39.552a385.28 385.28 0 0 1-16.64-78.528z" opacity=".76" p-id="2574"></path><path d="M130.15744 471.872l-127.296-13.44a513.728 513.728 0 0 0 0 107.072l127.232-13.376a385.28 385.28 0 0 1 0-80.256z" opacity=".79" p-id="2575"></path><path d="M146.86144 393.344L25.13344 353.792a513.728 513.728 0 0 0-22.336 104.704l127.36 13.376c2.816-26.688 8.384-52.992 16.64-78.528z" opacity=".82" p-id="2576"></path><path d="M179.50144 320L68.65344 256c-17.92 30.976-32.512 63.744-43.584 97.792l121.728 39.552A385.28 385.28 0 0 1 179.43744 320z" opacity=".85" p-id="2577"></path><path d="M226.66944 255.104L131.56544 169.472A513.728 513.728 0 0 0 68.52544 256l110.848 64c13.44-23.232 29.248-44.992 47.232-64.896z" opacity=".88" p-id="2578"></path><path d="M286.31744 201.344L211.11744 97.92a513.728 513.728 0 0 0-79.616 71.552l95.168 85.632a385.28 385.28 0 0 1 59.648-53.696z" opacity=".91" p-id="2579"></path><path d="M355.88544 161.28L303.72544 44.224c-32.64 14.592-63.744 32.512-92.736 53.504l75.264 103.552c21.76-15.744 44.992-29.184 69.504-40.128z" opacity=".94" p-id="2580"></path><path d="M432.17344 136.448L405.54944 11.264c-34.944 7.424-69.12 18.496-101.76 33.024l52.032 116.928c24.512-10.88 50.112-19.2 76.352-24.768z" opacity=".97" p-id="2581"></path><path d="M512.04544 128V0c-35.84 0-71.488 3.84-106.496 11.2l26.624 125.184a385.28 385.28 0 0 1 79.808-8.32z" p-id="2582"></path></svg>