<?xml version="1.0" standalone="no"?><!DOCTYPE svg PUBLIC "-//W3C//DTD SVG 1.1//EN" "http://www.w3.org/Graphics/SVG/1.1/DTD/svg11.dtd"><svg t="1733923967909" class="icon" viewBox="0 0 1024 1024" version="1.1" xmlns="http://www.w3.org/2000/svg" p-id="2819" xmlns:xlink="http://www.w3.org/1999/xlink" width="200" height="200"><path d="M683.2 272H84c-36.8 0-68 31.2-68 68.8V940c0 37.6 30.4 68.8 68.8 68.8H684c37.6 0 68.8-30.4 68.8-68.8V340c-1.6-37.6-32-68-69.6-68z m-50.4 616.8H135.2V390.4h497.6v498.4z" p-id="2820"></path><path d="M908.8 39.2H295.2c-38.4 0-68.8 31.2-69.6 68.8v137.6h109.6v-96h531.2v532H764v109.6h144.8c38.4 0 68.8-31.2 69.6-69.6V108c-0.8-37.6-32-68.8-69.6-68.8z" p-id="2821"></path></svg>