<?xml version="1.0" standalone="no"?><!DOCTYPE svg PUBLIC "-//W3C//DTD SVG 1.1//EN" "http://www.w3.org/Graphics/SVG/1.1/DTD/svg11.dtd"><svg t="1734012594392" class="icon" viewBox="0 0 1024 1024" version="1.1" xmlns="http://www.w3.org/2000/svg" p-id="2290" xmlns:xlink="http://www.w3.org/1999/xlink" width="200" height="200"><path d="M853.333333 256h-341.333333l-60.16-60.16C435.626667 179.626667 413.866667 170.666667 391.253333 170.666667H170.666667c-47.36 0-84.906667 37.973333-84.906667 85.333333L85.333333 768c0 47.36 37.973333 85.333333 85.333334 85.333333h682.666666c46.933333 0 85.333333-38.4 85.333334-85.333333V341.333333c0-46.933333-38.4-85.333333-85.333334-85.333333z m-85.333333 341.333333h-85.333333v85.333334c0 23.466667-19.2 42.666667-42.666667 42.666666s-42.666667-19.2-42.666667-42.666666v-85.333334h-85.333333c-23.466667 0-42.666667-19.2-42.666667-42.666666s19.2-42.666667 42.666667-42.666667h85.333333v-85.333333c0-23.466667 19.2-42.666667 42.666667-42.666667s42.666667 19.2 42.666667 42.666667v85.333333h85.333333c23.466667 0 42.666667 19.2 42.666667 42.666667s-19.2 42.666667-42.666667 42.666666z" p-id="2291"></path></svg>