<?xml version="1.0" standalone="no"?><!DOCTYPE svg PUBLIC "-//W3C//DTD SVG 1.1//EN" "http://www.w3.org/Graphics/SVG/1.1/DTD/svg11.dtd"><svg t="1740068141775" class="icon" viewBox="0 0 1024 1024" version="1.1" xmlns="http://www.w3.org/2000/svg" p-id="2922" xmlns:xlink="http://www.w3.org/1999/xlink" width="200" height="200"><path d="M225.28 921.6V243.712a61.44 61.44 0 0 0-16.95744-42.43456 81.92 81.92 0 1 1 115.83488 0A61.44 61.44 0 0 0 307.2 243.712v677.92896a40.96 40.96 0 1 1-81.87904 0z m197.77536-677.39648l377.93792 131.46112a57.61024 57.61024 0 0 1 0 108.83072l-377.93792 131.46112A40.96 40.96 0 0 1 368.64 577.24928V282.91072a40.96 40.96 0 0 1 54.41536-38.68672z" p-id="2923"></path></svg>