<?xml version="1.0" standalone="no"?><!DOCTYPE svg PUBLIC "-//W3C//DTD SVG 1.1//EN" "http://www.w3.org/Graphics/SVG/1.1/DTD/svg11.dtd"><svg t="1739288128391" class="icon" viewBox="0 0 1024 1024" version="1.1" xmlns="http://www.w3.org/2000/svg" p-id="2740" xmlns:xlink="http://www.w3.org/1999/xlink" width="200" height="200"><path d="M283.963077 298.535385l33.870769 33.476923a27.569231 27.569231 0 0 1 7.876923 19.692307v334.375385a27.569231 27.569231 0 0 1-7.876923 19.692308l-33.870769 33.476923a28.356923 28.356923 0 0 0 0 39.384615l43.716923 42.929231a27.569231 27.569231 0 0 0 39.384615 0l82.313847-81.526154a29.144615 29.144615 0 0 0 7.876923-19.692308V317.833846a27.569231 27.569231 0 0 0-7.876923-19.692308L367.064615 216.221538a27.963077 27.963077 0 0 0-39.384615 0L283.963077 259.150769a28.356923 28.356923 0 0 0 0 39.384616z m421.415385 33.476923l33.870769-33.476923a28.356923 28.356923 0 0 0 0-39.384616l-43.323077-42.929231a27.963077 27.963077 0 0 0-39.384616 0l-82.707692 81.92a27.569231 27.569231 0 0 0-7.876923 19.692308v402.510769a29.144615 29.144615 0 0 0 7.876923 19.692308l82.313846 81.526154a27.963077 27.963077 0 0 0 39.384616 0l42.92923-42.929231a27.569231 27.569231 0 0 0 0-39.384615l-33.476923-33.083077a29.538462 29.538462 0 0 1-8.270769-19.692308v-334.769231a26.781538 26.781538 0 0 1 8.664616-19.692307z" p-id="2741"></path></svg>