<?xml version="1.0" standalone="no"?><!DOCTYPE svg PUBLIC "-//W3C//DTD SVG 1.1//EN" "http://www.w3.org/Graphics/SVG/1.1/DTD/svg11.dtd"><svg t="1739971262980" class="icon" viewBox="0 0 1024 1024" version="1.1" xmlns="http://www.w3.org/2000/svg" p-id="12119" xmlns:xlink="http://www.w3.org/1999/xlink" width="200" height="200"><path d="M877.714286 841.142857H146.285714a73.142857 73.142857 0 0 1-73.142857-73.142857V256a73.142857 73.142857 0 0 1 73.142857-73.142857h731.428572a73.142857 73.142857 0 0 1 73.142857 73.142857v512a73.142857 73.142857 0 0 1-73.142857 73.142857zM329.142857 694.857143h365.714286a36.571429 36.571429 0 0 0 0-73.142857H329.142857a36.571429 36.571429 0 0 0 0 73.142857zM329.142857 329.142857H256a36.571429 36.571429 0 0 0 0 73.142857h73.142857a36.571429 36.571429 0 0 0 0-73.142857z m0 146.285714H256a36.571429 36.571429 0 0 0 0 73.142858h73.142857a36.571429 36.571429 0 0 0 0-73.142858z m219.428572-146.285714h-73.142858a36.571429 36.571429 0 0 0 0 73.142857h73.142858a36.571429 36.571429 0 0 0 0-73.142857z m0 146.285714h-73.142858a36.571429 36.571429 0 0 0 0 73.142858h73.142858a36.571429 36.571429 0 0 0 0-73.142858z m219.428571-146.285714h-73.142857a36.571429 36.571429 0 0 0 0 73.142857h73.142857a36.571429 36.571429 0 0 0 0-73.142857z m0 146.285714h-73.142857a36.571429 36.571429 0 0 0 0 73.142858h73.142857a36.571429 36.571429 0 0 0 0-73.142858z" p-id="12120"></path></svg>