<?xml version="1.0" standalone="no"?><!DOCTYPE svg PUBLIC "-//W3C//DTD SVG 1.1//EN" "http://www.w3.org/Graphics/SVG/1.1/DTD/svg11.dtd"><svg t="1734023442531" class="icon" viewBox="0 0 1024 1024" version="1.1" xmlns="http://www.w3.org/2000/svg" p-id="2492" xmlns:xlink="http://www.w3.org/1999/xlink" width="200" height="200"><path d="M879.36 291.84l-352-192a32.64 32.64 0 0 0-30.72 0l-352 192A32.192 32.192 0 0 0 128 320v384a32.192 32.192 0 0 0 16.64 28.16l352 192a32.64 32.64 0 0 0 30.72 0l352-192A32.192 32.192 0 0 0 896 704V320a32.192 32.192 0 0 0-16.64-28.16z m-191.04 151.68L544 530.24V672a32 32 0 0 1-64 0v-141.76l-144.32-86.72a32 32 0 1 1 32.64-55.04L512 474.56l143.68-86.08a32 32 0 0 1 32.64 55.04z" p-id="2493"></path></svg>