<?xml version="1.0" standalone="no"?><!DOCTYPE svg PUBLIC "-//W3C//DTD SVG 1.1//EN" "http://www.w3.org/Graphics/SVG/1.1/DTD/svg11.dtd"><svg t="1739423973769" class="icon" viewBox="0 0 1024 1024" version="1.1" xmlns="http://www.w3.org/2000/svg" p-id="2830" xmlns:xlink="http://www.w3.org/1999/xlink" width="200" height="200"><path d="M761.8 195.3l-247.6 165a3.9 3.9 0 0 1-4.4 0l-247.6-165a4 4 0 0 0-6.2 3.3v163.5a4.1 4.1 0 0 0 1.8 3.3l252 168a3.9 3.9 0 0 0 4.4 0l252-168a4.1 4.1 0 0 0 1.8-3.3V198.6a4 4 0 0 0-6.2-3.3z m0 362l-247.6 165a3.9 3.9 0 0 1-4.4 0l-247.6-165a4 4 0 0 0-6.2 3.3v163.5a4.1 4.1 0 0 0 1.8 3.3l252 168a3.9 3.9 0 0 0 4.4 0l252-168a4.1 4.1 0 0 0 1.8-3.3V560.6a4 4 0 0 0-6.2-3.3z" p-id="2831"></path></svg>