<?xml version="1.0" standalone="no"?><!DOCTYPE svg PUBLIC "-//W3C//DTD SVG 1.1//EN" "http://www.w3.org/Graphics/SVG/1.1/DTD/svg11.dtd"><svg t="1734012340012" class="icon" viewBox="0 0 1024 1024" version="1.1" xmlns="http://www.w3.org/2000/svg" p-id="2260" xmlns:xlink="http://www.w3.org/1999/xlink" width="200" height="200"><path d="M564.18304 160.768a246.70208 246.70208 0 0 1 148.02944 20.52096 30.72 30.72 0 0 1 8.47872 49.43872L603.7504 347.7504v64.55296h64.55296l116.98176-116.98176a30.72 30.72 0 0 1 49.43872 8.47872 246.66112 246.66112 0 0 1-308.59264 337.5104L324.8128 842.67008a107.06944 107.06944 0 1 1-151.42912-151.42912l201.3184-201.3184a246.70208 246.70208 0 0 1 189.52192-329.1136z m-2.41664 643.35872a32.768 32.768 0 0 0 0 65.536h262.144a32.768 32.768 0 1 0 0-65.536h-262.144z m125.7472-85.1968a32.768 32.768 0 0 1 32.768-32.768h98.304a32.768 32.768 0 0 1 0 65.536h-98.304a32.768 32.768 0 0 1-32.768-32.768z" p-id="2261"></path></svg>