<?xml version="1.0" standalone="no"?><!DOCTYPE svg PUBLIC "-//W3C//DTD SVG 1.1//EN" "http://www.w3.org/Graphics/SVG/1.1/DTD/svg11.dtd"><svg t="1734111037537" class="icon" viewBox="0 0 1024 1024" version="1.1" xmlns="http://www.w3.org/2000/svg" p-id="2410" xmlns:xlink="http://www.w3.org/1999/xlink" width="200" height="200"><path d="M187.69 874.71h-0.277a37.504 37.504 0 0 1-26.602-11.265 37.845 37.845 0 0 1-3.904-49.877l166.762-229.76-125.013-125.056a38.23 38.23 0 0 1-6.059-46.336 140.8 140.8 0 0 1 53.504-45.675 154.24 154.24 0 0 1 67.84-15.552 161.792 161.792 0 0 1 51.84 8.534l6.4 0.661c5.782 0.405 10.902 0.981 15.702 1.75A161.877 161.877 0 0 0 492.16 314.88a144.875 144.875 0 0 0 58.475-90.347c0-5.802 0-11.904-0.235-17.664a80.576 80.576 0 0 1 15.659-74.858 84.95 84.95 0 0 1 60.8-25.344 85.525 85.525 0 0 1 54.08 19.328l1.962 1.941c18.88 18.432 207.254 206.933 209.067 208.747a85.93 85.93 0 0 1 25.365 61.205 85.973 85.973 0 0 1-25.6 61.205 67.456 67.456 0 0 1-46.549 16.875 199.21 199.21 0 0 1-30.23-3.008 226.176 226.176 0 0 0-15.7-0.363h-1.494a115.605 115.605 0 0 0-77.93 45.206 210.752 210.752 0 0 0-59.457 118.976c0.918 7.85 2.56 21.333 2.859 23.125a144.299 144.299 0 0 1-57.259 165.056 38.23 38.23 0 0 1-20.138 5.717 38.059 38.059 0 0 1-27.094-11.2L435.18 695.744 209.92 866.987a36.267 36.267 0 0 1-22.23 7.722z" p-id="2411"></path></svg>