<?xml version="1.0" standalone="no"?><!DOCTYPE svg PUBLIC "-//W3C//DTD SVG 1.1//EN" "http://www.w3.org/Graphics/SVG/1.1/DTD/svg11.dtd"><svg t="1734101096907" class="icon" viewBox="0 0 1024 1024" version="1.1" xmlns="http://www.w3.org/2000/svg" p-id="2380" xmlns:xlink="http://www.w3.org/1999/xlink" width="200" height="200"><path d="M256 512c0 141.38368 114.61632 256 256 256s256-114.61632 256-256-114.61632-256-256-256-256 114.61632-256 256z" fill="#CCCCCC" p-id="2381"></path><path d="M512 64c-247.3984 0-448 200.6016-448 448s200.6016 448 448 448 448-200.6016 448-448-200.6016-448-448-448z m0 832c-212.10112 0-384-171.89888-384-384s171.89888-384 384-384 384 171.89888 384 384-171.89888 384-384 384z" fill="#CCCCCC" p-id="2382"></path></svg>