<?xml version="1.0" standalone="no"?><!DOCTYPE svg PUBLIC "-//W3C//DTD SVG 1.1//EN" "http://www.w3.org/Graphics/SVG/1.1/DTD/svg11.dtd"><svg t="1734012390185" class="icon" viewBox="0 0 1024 1024" version="1.1" xmlns="http://www.w3.org/2000/svg" p-id="2694" xmlns:xlink="http://www.w3.org/1999/xlink" width="200" height="200"><path d="M122.88 819.20000001l0-614.40000002a81.92 81.92 0 0 1 81.91999999-81.91999999l184.32000001 0a81.92 81.92 0 0 1 81.92 81.92L471.04 819.2a81.92 81.92 0 0 1-81.92 81.92l-184.32000001 0a81.92 81.92 0 0 1-81.91999999-81.91999999z m430.08-1e-8l0-614.4a81.92 81.92 0 0 1 81.92-81.92l184.32000001 0a81.92 81.92 0 0 1 81.91999999 81.91999999L901.12 819.20000001a81.92 81.92 0 0 1-81.91999999 81.91999999l-184.32000001 0a81.92 81.92 0 0 1-81.92-81.92z" p-id="2695"></path></svg>