<?xml version="1.0" standalone="no"?><!DOCTYPE svg PUBLIC "-//W3C//DTD SVG 1.1//EN" "http://www.w3.org/Graphics/SVG/1.1/DTD/svg11.dtd"><svg t="1739970877580" class="icon" viewBox="0 0 1024 1024" version="1.1" xmlns="http://www.w3.org/2000/svg" p-id="3926" xmlns:xlink="http://www.w3.org/1999/xlink" width="200" height="200"><path d="M399.36 737.28c6.26688 12.55424 19.10784 20.48 33.13664 20.48h159.00672c14.0288 0 26.86976-7.92576 33.13664-20.48 6.26688-12.55424 19.10784-20.48 33.13664-20.48H921.6a40.96 40.96 0 0 1 40.96 40.96 81.92 81.92 0 0 1-81.92 81.92H143.36a81.92 81.92 0 0 1-81.92-81.92 40.96 40.96 0 0 1 40.96-40.96h263.82336c14.0288 0 26.86976 7.92576 33.13664 20.48zM184.32 655.36H143.36a20.48 20.48 0 0 1-20.48-20.48V266.24a81.92 81.92 0 0 1 81.92-81.92h614.4a81.92 81.92 0 0 1 81.92 81.92v368.64a20.48 20.48 0 0 1-20.48 20.48h-40.96a20.48 20.48 0 0 1-20.48-20.48V266.24H204.8v368.64a20.48 20.48 0 0 1-20.48 20.48z" p-id="3927"></path></svg>