<?xml version="1.0" standalone="no"?><!DOCTYPE svg PUBLIC "-//W3C//DTD SVG 1.1//EN" "http://www.w3.org/Graphics/SVG/1.1/DTD/svg11.dtd"><svg t="1737221291702" class="icon" viewBox="0 0 1024 1024" version="1.1" xmlns="http://www.w3.org/2000/svg" p-id="2710" xmlns:xlink="http://www.w3.org/1999/xlink" width="200" height="200"><path d="M320 0H64a64 64 0 0 0-64 64v256a64 64 0 0 0 128 0V128h192a64 64 0 0 0 0-128zM960 0h-256a64 64 0 0 0 0 128h192v192a64 64 0 0 0 128 0V64a64 64 0 0 0-64-64zM320 896H128v-192a64 64 0 0 0-128 0v256a64 64 0 0 0 64 64h256a64 64 0 0 0 0-128zM960 640a64 64 0 0 0-64 64v192h-192a64 64 0 0 0 0 128h256a64 64 0 0 0 64-64v-256a64 64 0 0 0-64-64z" p-id="2711"></path></svg>